# xmcd
#
# Track frame offsets:
# 150
# 16909
# 29146
# 44936
# 66837
# 87128
# 110956
# 131241
# 150570
# 162921
# 183426
# 199983
# 218493
# 231730
# 247381
# 262054
# 281712
# 295402
#
# Disc length: 4337 seconds
#
# Revision: 0
# Processed by: cddbd v1.5.1PL0 Copyright (c) Steve Scherf et al.
# Submitted via: Audion 3.0.2 (http://www.panic.com/audion/)
#
DISCID=2c10ef12
DTITLE=Ride - Not Fazed
DYEAR=1900
DGENRE=
TTITLE0=Not Fazed
TTITLE1=Making Judy Smile
TTITLE2=Time of Her Time
TTITLE3=I Don't Want to Be a Soldier
TTITLE4=Crown of Creation
TTITLE5=Birdman
TTITLE6=Walk on Water
TTITLE7=Don't Let it Die
TTITLE8=How Does It Feel To Feel (Acoustic)
TTITLE9=Only Now (Acoustic)
TTITLE10=I Don't Know Where It Comes From (Acoustic)
TTITLE11=Twisterella (Acoustic)
TTITLE12=Severence
TTITLE13=Here and Now
TTITLE14=All I Can See
TTITLE15=Decay
TTITLE16=Like A Daydream
TTITLE17=Dreams Burn Down
EXTD=
EXTT0=
EXTT1=
EXTT2=
EXTT3=
EXTT4=
EXTT5=
EXTT6=
EXTT7=
EXTT8=
EXTT9=
EXTT10=
EXTT11=
EXTT12=
EXTT13=
EXTT14=
EXTT15=
EXTT16=
EXTT17=
PLAYORDER=
